# xmcd
#
# Track frame offsets: 
#        150
#        14320
#        32856
#        50819
#        68333
#        88090
#        107782
#        127520
#        142172
#        158739
#        175762
#
# Disc length: 2605 seconds
#
# Revision: 0
# Processed by: cddbd v1.5.2PL0 Copyright (c) Steve Scherf et al.
# Submitted via: ExactAudioCopy v1.1
#
DISCID=8b0a2b0b
DTITLE=The Black Feathers - Soaked to the Bone
DYEAR=2015
DGENRE=Acoustic
TTITLE0=Take Me Back
TTITLE1=Goodbye Tomorrow
TTITLE2=Arclight
TTITLE3=Blind
TTITLE4=All For You
TTITLE5=Homesick
TTITLE6=Winter Moves In
TTITLE7=Down By The River
TTITLE8=Make You Feel My Love
TTITLE9=Spider And The Fly
TTITLE10=Clear Blue Sky
EXTD=
EXTT0=
EXTT1=
EXTT2=
EXTT3=
EXTT4=
EXTT5=
EXTT6=
EXTT7=
EXTT8=
EXTT9=
EXTT10=
PLAYORDER=
